{
	"asset":{
		"generator":"Khronos glTF Blender I/O v5.2.40",
		"version":"2.0"
	},
	"extensionsUsed":[
		"KHR_materials_specular"
	],
	"scene":0,
	"scenes":[
		{
			"name":"BankCard",
			"nodes":[
				0
			]
		}
	],
	"nodes":[
		{
			"mesh":0,
			"name":"BankCard"
		}
	],
	"animations":[
		{
			"channels":[
				{
					"sampler":0,
					"target":{
						"node":0,
						"path":"rotation"
					}
				}
			],
			"name":"Spin",
			"samplers":[
				{
					"input":12,
					"interpolation":"LINEAR",
					"output":13
				}
			]
		}
	],
	"materials":[
		{
			"doubleSided":true,
			"extensions":{
				"KHR_materials_specular":{
					"specularFactor":0.20000000298023224
				}
			},
			"name":"M_Card_Front",
			"normalTexture":{
				"index":0
			},
			"pbrMetallicRoughness":{
				"baseColorTexture":{
					"index":1
				},
				"metallicRoughnessTexture":{
					"index":2
				}
			}
		},
		{
			"doubleSided":true,
			"extensions":{
				"KHR_materials_specular":{
					"specularFactor":0.20000000298023224
				}
			},
			"name":"M_Card_Back",
			"normalTexture":{
				"index":3
			},
			"pbrMetallicRoughness":{
				"baseColorTexture":{
					"index":4
				},
				"metallicRoughnessTexture":{
					"index":5
				}
			}
		},
		{
			"doubleSided":true,
			"name":"M_Card_Edge",
			"pbrMetallicRoughness":{
				"baseColorFactor":[
					0.02800000086426735,
					0.035999998450279236,
					0.06599999964237213,
					1
				],
				"metallicFactor":0,
				"roughnessFactor":0.3799999952316284
			}
		}
	],
	"meshes":[
		{
			"name":"BankCard",
			"primitives":[
				{
					"attributes":{
						"POSITION":0,
						"NORMAL":1,
						"TEXCOORD_0":2
					},
					"indices":3,
					"material":0
				},
				{
					"attributes":{
						"POSITION":4,
						"NORMAL":5,
						"TEXCOORD_0":6
					},
					"indices":7,
					"material":1
				},
				{
					"attributes":{
						"POSITION":8,
						"NORMAL":9,
						"TEXCOORD_0":10
					},
					"indices":11,
					"material":2
				}
			]
		}
	],
	"textures":[
		{
			"sampler":0,
			"source":0
		},
		{
			"sampler":0,
			"source":1
		},
		{
			"sampler":0,
			"source":2
		},
		{
			"sampler":0,
			"source":3
		},
		{
			"sampler":0,
			"source":4
		},
		{
			"sampler":0,
			"source":5
		}
	],
	"images":[
		{
			"mimeType":"image/png",
			"name":"card_front_normal",
			"uri":"textures/card_front_normal.png"
		},
		{
			"mimeType":"image/png",
			"name":"card_front",
			"uri":"textures/card_front.png"
		},
		{
			"mimeType":"image/png",
			"name":"card_front_orm",
			"uri":"textures/card_front_orm.png"
		},
		{
			"mimeType":"image/png",
			"name":"card_back_normal",
			"uri":"textures/card_back_normal.png"
		},
		{
			"mimeType":"image/png",
			"name":"card_back",
			"uri":"textures/card_back.png"
		},
		{
			"mimeType":"image/png",
			"name":"card_back_orm",
			"uri":"textures/card_back_orm.png"
		}
	],
	"accessors":[
		{
			"bufferView":0,
			"componentType":5126,
			"count":100,
			"max":[
				0.02627389132976532,
				0.04268000274896622,
				0.0003800000122282654
			],
			"min":[
				-0.02627389132976532,
				-0.04268000274896622,
				0.0003800000122282654
			],
			"type":"VEC3"
		},
		{
			"bufferView":1,
			"componentType":5126,
			"count":100,
			"type":"VEC3"
		},
		{
			"bufferView":2,
			"componentType":5126,
			"count":100,
			"type":"VEC2"
		},
		{
			"bufferView":3,
			"componentType":5123,
			"count":294,
			"type":"SCALAR"
		},
		{
			"bufferView":4,
			"componentType":5126,
			"count":100,
			"max":[
				0.02627389132976532,
				0.04268000274896622,
				-0.0003800000122282654
			],
			"min":[
				-0.02627389132976532,
				-0.04268000274896622,
				-0.0003800000122282654
			],
			"type":"VEC3"
		},
		{
			"bufferView":5,
			"componentType":5126,
			"count":100,
			"type":"VEC3"
		},
		{
			"bufferView":6,
			"componentType":5126,
			"count":100,
			"type":"VEC2"
		},
		{
			"bufferView":7,
			"componentType":5123,
			"count":294,
			"type":"SCALAR"
		},
		{
			"bufferView":8,
			"componentType":5126,
			"count":800,
			"max":[
				0.026393890380859375,
				0.04280000180006027,
				0.0003800000122282654
			],
			"min":[
				-0.026393890380859375,
				-0.04280000180006027,
				-0.0003800000122282654
			],
			"type":"VEC3"
		},
		{
			"bufferView":9,
			"componentType":5126,
			"count":800,
			"type":"VEC3"
		},
		{
			"bufferView":10,
			"componentType":5126,
			"count":800,
			"type":"VEC2"
		},
		{
			"bufferView":11,
			"componentType":5123,
			"count":3000,
			"type":"SCALAR"
		},
		{
			"bufferView":12,
			"componentType":5126,
			"count":241,
			"max":[
				8
			],
			"min":[
				0
			],
			"type":"SCALAR"
		},
		{
			"bufferView":13,
			"componentType":5126,
			"count":241,
			"type":"VEC4"
		}
	],
	"bufferViews":[
		{
			"buffer":0,
			"byteLength":1200,
			"byteOffset":0,
			"target":34962
		},
		{
			"buffer":0,
			"byteLength":1200,
			"byteOffset":1200,
			"target":34962
		},
		{
			"buffer":0,
			"byteLength":800,
			"byteOffset":2400,
			"target":34962
		},
		{
			"buffer":0,
			"byteLength":588,
			"byteOffset":3200,
			"target":34963
		},
		{
			"buffer":0,
			"byteLength":1200,
			"byteOffset":3788,
			"target":34962
		},
		{
			"buffer":0,
			"byteLength":1200,
			"byteOffset":4988,
			"target":34962
		},
		{
			"buffer":0,
			"byteLength":800,
			"byteOffset":6188,
			"target":34962
		},
		{
			"buffer":0,
			"byteLength":588,
			"byteOffset":6988,
			"target":34963
		},
		{
			"buffer":0,
			"byteLength":9600,
			"byteOffset":7576,
			"target":34962
		},
		{
			"buffer":0,
			"byteLength":9600,
			"byteOffset":17176,
			"target":34962
		},
		{
			"buffer":0,
			"byteLength":6400,
			"byteOffset":26776,
			"target":34962
		},
		{
			"buffer":0,
			"byteLength":6000,
			"byteOffset":33176,
			"target":34963
		},
		{
			"buffer":0,
			"byteLength":964,
			"byteOffset":39176
		},
		{
			"buffer":0,
			"byteLength":3856,
			"byteOffset":40140
		}
	],
	"samplers":[
		{
			"magFilter":9729,
			"minFilter":9987
		}
	],
	"buffers":[
		{
			"byteLength":43996,
			"uri":"bank_card.bin"
		}
	]
}
