{
	"asset":{
		"generator":"Khronos glTF Blender I/O v5.2.40",
		"version":"2.0"
	},
	"extensionsUsed":[
		"KHR_materials_clearcoat",
		"KHR_materials_emissive_strength",
		"EXT_texture_webp"
	],
	"extensionsRequired":[
		"EXT_texture_webp"
	],
	"scene":0,
	"scenes":[
		{
			"name":"CardFilm",
			"nodes":[
				9
			]
		}
	],
	"nodes":[
		{
			"mesh":0,
			"name":"Back",
			"rotation":[
				0.10977831482887268,
				0,
				0,
				0.9939561486244202
			],
			"translation":[
				0,
				-0.10000000149011612,
				-0.8500000238418579
			]
		},
		{
			"mesh":1,
			"name":"Core",
			"scale":[
				0.550000011920929,
				0.550000011920929,
				0.550000011920929
			]
		},
		{
			"mesh":2,
			"name":"Trace_0",
			"translation":[
				0,
				0,
				0.3199999928474426
			]
		},
		{
			"mesh":3,
			"name":"Trace_1",
			"translation":[
				0,
				0,
				0.3600000739097595
			]
		},
		{
			"mesh":4,
			"name":"Trace_2",
			"translation":[
				0,
				0,
				0.40000003576278687
			]
		},
		{
			"mesh":5,
			"name":"Trace_3",
			"translation":[
				0,
				0,
				0.4399999976158142
			]
		},
		{
			"mesh":6,
			"name":"Trace_4",
			"translation":[
				0,
				0,
				0.47999995946884155
			]
		},
		{
			"mesh":7,
			"name":"Trace_5",
			"translation":[
				0,
				0,
				0.5200000405311584
			]
		},
		{
			"children":[
				2,
				3,
				4,
				5,
				6,
				7
			],
			"mesh":8,
			"name":"Front",
			"rotation":[
				-0.10977831482887268,
				0,
				0,
				0.9939561486244202
			],
			"translation":[
				0,
				0.10000000149011612,
				0.8500000238418579
			]
		},
		{
			"children":[
				0,
				1,
				8
			],
			"name":"CardLayers"
		}
	],
	"animations":[
		{
			"channels":[
				{
					"sampler":0,
					"target":{
						"node":0,
						"path":"translation"
					}
				},
				{
					"sampler":1,
					"target":{
						"node":0,
						"path":"rotation"
					}
				},
				{
					"sampler":2,
					"target":{
						"node":0,
						"path":"scale"
					}
				},
				{
					"sampler":3,
					"target":{
						"node":1,
						"path":"translation"
					}
				},
				{
					"sampler":4,
					"target":{
						"node":1,
						"path":"rotation"
					}
				},
				{
					"sampler":5,
					"target":{
						"node":1,
						"path":"scale"
					}
				},
				{
					"sampler":6,
					"target":{
						"node":8,
						"path":"translation"
					}
				},
				{
					"sampler":7,
					"target":{
						"node":8,
						"path":"rotation"
					}
				},
				{
					"sampler":8,
					"target":{
						"node":8,
						"path":"scale"
					}
				},
				{
					"sampler":9,
					"target":{
						"node":2,
						"path":"translation"
					}
				},
				{
					"sampler":10,
					"target":{
						"node":2,
						"path":"rotation"
					}
				},
				{
					"sampler":11,
					"target":{
						"node":2,
						"path":"scale"
					}
				},
				{
					"sampler":12,
					"target":{
						"node":3,
						"path":"translation"
					}
				},
				{
					"sampler":13,
					"target":{
						"node":3,
						"path":"rotation"
					}
				},
				{
					"sampler":14,
					"target":{
						"node":3,
						"path":"scale"
					}
				},
				{
					"sampler":15,
					"target":{
						"node":4,
						"path":"translation"
					}
				},
				{
					"sampler":16,
					"target":{
						"node":4,
						"path":"rotation"
					}
				},
				{
					"sampler":17,
					"target":{
						"node":4,
						"path":"scale"
					}
				},
				{
					"sampler":18,
					"target":{
						"node":5,
						"path":"translation"
					}
				},
				{
					"sampler":19,
					"target":{
						"node":5,
						"path":"rotation"
					}
				},
				{
					"sampler":20,
					"target":{
						"node":5,
						"path":"scale"
					}
				},
				{
					"sampler":21,
					"target":{
						"node":6,
						"path":"translation"
					}
				},
				{
					"sampler":22,
					"target":{
						"node":6,
						"path":"rotation"
					}
				},
				{
					"sampler":23,
					"target":{
						"node":6,
						"path":"scale"
					}
				},
				{
					"sampler":24,
					"target":{
						"node":7,
						"path":"translation"
					}
				},
				{
					"sampler":25,
					"target":{
						"node":7,
						"path":"rotation"
					}
				},
				{
					"sampler":26,
					"target":{
						"node":7,
						"path":"scale"
					}
				}
			],
			"name":"Film",
			"samplers":[
				{
					"input":48,
					"interpolation":"LINEAR",
					"output":49
				},
				{
					"input":48,
					"interpolation":"LINEAR",
					"output":50
				},
				{
					"input":51,
					"interpolation":"STEP",
					"output":52
				},
				{
					"input":51,
					"interpolation":"STEP",
					"output":53
				},
				{
					"input":51,
					"interpolation":"STEP",
					"output":54
				},
				{
					"input":48,
					"interpolation":"LINEAR",
					"output":55
				},
				{
					"input":48,
					"interpolation":"LINEAR",
					"output":56
				},
				{
					"input":48,
					"interpolation":"LINEAR",
					"output":57
				},
				{
					"input":51,
					"interpolation":"STEP",
					"output":52
				},
				{
					"input":48,
					"interpolation":"LINEAR",
					"output":58
				},
				{
					"input":51,
					"interpolation":"STEP",
					"output":54
				},
				{
					"input":51,
					"interpolation":"STEP",
					"output":59
				},
				{
					"input":48,
					"interpolation":"LINEAR",
					"output":60
				},
				{
					"input":51,
					"interpolation":"STEP",
					"output":54
				},
				{
					"input":51,
					"interpolation":"STEP",
					"output":59
				},
				{
					"input":48,
					"interpolation":"LINEAR",
					"output":61
				},
				{
					"input":51,
					"interpolation":"STEP",
					"output":54
				},
				{
					"input":51,
					"interpolation":"STEP",
					"output":59
				},
				{
					"input":48,
					"interpolation":"LINEAR",
					"output":62
				},
				{
					"input":51,
					"interpolation":"STEP",
					"output":54
				},
				{
					"input":51,
					"interpolation":"STEP",
					"output":59
				},
				{
					"input":48,
					"interpolation":"LINEAR",
					"output":63
				},
				{
					"input":51,
					"interpolation":"STEP",
					"output":54
				},
				{
					"input":51,
					"interpolation":"STEP",
					"output":59
				},
				{
					"input":48,
					"interpolation":"LINEAR",
					"output":64
				},
				{
					"input":51,
					"interpolation":"STEP",
					"output":54
				},
				{
					"input":51,
					"interpolation":"STEP",
					"output":59
				}
			]
		}
	],
	"materials":[
		{
			"name":"Inner",
			"pbrMetallicRoughness":{
				"baseColorFactor":[
					0.029999999329447746,
					0.03999999910593033,
					0.07000000029802322,
					1
				],
				"metallicFactor":0.8999999761581421,
				"roughnessFactor":0.44999998807907104
			}
		},
		{
			"extensions":{
				"KHR_materials_clearcoat":{
					"clearcoatFactor":0.6000000238418579,
					"clearcoatRoughnessFactor":0.2199999988079071
				}
			},
			"name":"Back",
			"normalTexture":{
				"index":0
			},
			"occlusionTexture":{
				"index":1
			},
			"pbrMetallicRoughness":{
				"baseColorTexture":{
					"index":2
				},
				"metallicRoughnessTexture":{
					"index":1
				}
			}
		},
		{
			"name":"Edge",
			"pbrMetallicRoughness":{
				"baseColorFactor":[
					0.1599999964237213,
					0.20000000298023224,
					0.3199999928474426,
					1
				],
				"roughnessFactor":0.23999999463558197
			}
		},
		{
			"emissiveFactor":[
				1,
				1,
				1
			],
			"emissiveTexture":{
				"index":3
			},
			"extensions":{
				"KHR_materials_emissive_strength":{
					"emissiveStrength":2
				}
			},
			"name":"Core",
			"pbrMetallicRoughness":{
				"baseColorFactor":[
					0.012000000104308128,
					0.019999999552965164,
					0.04500000178813934,
					1
				],
				"metallicFactor":0,
				"roughnessFactor":0.30000001192092896
			}
		},
		{
			"emissiveFactor":[
				0.3799999952316284,
				0.7200000286102295,
				1
			],
			"extensions":{
				"KHR_materials_emissive_strength":{
					"emissiveStrength":3
				}
			},
			"name":"CoreEdge",
			"pbrMetallicRoughness":{
				"baseColorFactor":[
					0.05000000074505806,
					0.10000000149011612,
					0.20000000298023224,
					1
				],
				"metallicFactor":0,
				"roughnessFactor":0.30000001192092896
			}
		},
		{
			"emissiveFactor":[
				0.3799999952316284,
				0.7200000286102295,
				1
			],
			"name":"Trace",
			"pbrMetallicRoughness":{
				"baseColorFactor":[
					0.6200000047683716,
					0.800000011920929,
					1,
					1
				],
				"roughnessFactor":0.18000000715255737
			}
		},
		{
			"extensions":{
				"KHR_materials_clearcoat":{
					"clearcoatFactor":0.6000000238418579,
					"clearcoatRoughnessFactor":0.2199999988079071
				}
			},
			"name":"Front",
			"normalTexture":{
				"index":4
			},
			"occlusionTexture":{
				"index":5
			},
			"pbrMetallicRoughness":{
				"baseColorTexture":{
					"index":6
				},
				"metallicRoughnessTexture":{
					"index":5
				}
			}
		}
	],
	"meshes":[
		{
			"name":"Back",
			"primitives":[
				{
					"attributes":{
						"POSITION":0,
						"NORMAL":1,
						"TEXCOORD_0":2
					},
					"indices":3,
					"material":0
				},
				{
					"attributes":{
						"POSITION":4,
						"NORMAL":5,
						"TEXCOORD_0":6
					},
					"indices":7,
					"material":1
				},
				{
					"attributes":{
						"POSITION":8,
						"NORMAL":9,
						"TEXCOORD_0":10
					},
					"indices":11,
					"material":2
				}
			]
		},
		{
			"name":"Core",
			"primitives":[
				{
					"attributes":{
						"POSITION":12,
						"NORMAL":13,
						"TEXCOORD_0":14
					},
					"indices":3,
					"material":3
				},
				{
					"attributes":{
						"POSITION":15,
						"NORMAL":16,
						"TEXCOORD_0":17
					},
					"indices":7,
					"material":3
				},
				{
					"attributes":{
						"POSITION":18,
						"NORMAL":19,
						"TEXCOORD_0":20
					},
					"indices":11,
					"material":4
				}
			]
		},
		{
			"name":"Trace_0",
			"primitives":[
				{
					"attributes":{
						"POSITION":21,
						"NORMAL":22
					},
					"indices":23,
					"material":5
				}
			]
		},
		{
			"name":"Trace_1",
			"primitives":[
				{
					"attributes":{
						"POSITION":24,
						"NORMAL":25
					},
					"indices":26,
					"material":5
				}
			]
		},
		{
			"name":"Trace_2",
			"primitives":[
				{
					"attributes":{
						"POSITION":27,
						"NORMAL":28
					},
					"indices":29,
					"material":5
				}
			]
		},
		{
			"name":"Trace_3",
			"primitives":[
				{
					"attributes":{
						"POSITION":30,
						"NORMAL":31
					},
					"indices":32,
					"material":5
				}
			]
		},
		{
			"name":"Trace_4",
			"primitives":[
				{
					"attributes":{
						"POSITION":33,
						"NORMAL":34
					},
					"indices":35,
					"material":5
				}
			]
		},
		{
			"name":"Trace_5",
			"primitives":[
				{
					"attributes":{
						"POSITION":36,
						"NORMAL":37
					},
					"indices":38,
					"material":5
				}
			]
		},
		{
			"name":"Front",
			"primitives":[
				{
					"attributes":{
						"POSITION":39,
						"NORMAL":40,
						"TEXCOORD_0":41
					},
					"indices":3,
					"material":6
				},
				{
					"attributes":{
						"POSITION":42,
						"NORMAL":43,
						"TEXCOORD_0":44
					},
					"indices":7,
					"material":0
				},
				{
					"attributes":{
						"POSITION":45,
						"NORMAL":46,
						"TEXCOORD_0":47
					},
					"indices":11,
					"material":2
				}
			]
		}
	],
	"textures":[
		{
			"extensions":{
				"EXT_texture_webp":{
					"source":0
				}
			},
			"sampler":0
		},
		{
			"extensions":{
				"EXT_texture_webp":{
					"source":1
				}
			},
			"sampler":0
		},
		{
			"extensions":{
				"EXT_texture_webp":{
					"source":2
				}
			},
			"sampler":0
		},
		{
			"extensions":{
				"EXT_texture_webp":{
					"source":3
				}
			},
			"sampler":0
		},
		{
			"extensions":{
				"EXT_texture_webp":{
					"source":4
				}
			},
			"sampler":0
		},
		{
			"extensions":{
				"EXT_texture_webp":{
					"source":5
				}
			},
			"sampler":0
		},
		{
			"extensions":{
				"EXT_texture_webp":{
					"source":6
				}
			},
			"sampler":0
		}
	],
	"images":[
		{
			"mimeType":"image/webp",
			"name":"back_normal",
			"uri":"textures/back_normal.webp"
		},
		{
			"mimeType":"image/webp",
			"name":"back_orm",
			"uri":"textures/back_orm.webp"
		},
		{
			"mimeType":"image/webp",
			"name":"back_color",
			"uri":"textures/back_color.webp"
		},
		{
			"mimeType":"image/webp",
			"name":"core_emissive",
			"uri":"textures/core_emissive.webp"
		},
		{
			"mimeType":"image/webp",
			"name":"front_normal",
			"uri":"textures/front_normal.webp"
		},
		{
			"mimeType":"image/webp",
			"name":"front_orm",
			"uri":"textures/front_orm.webp"
		},
		{
			"mimeType":"image/webp",
			"name":"front_color",
			"uri":"textures/front_color.webp"
		}
	],
	"accessors":[
		{
			"bufferView":0,
			"componentType":5126,
			"count":84,
			"max":[
				0.4984000027179718,
				0.811325192451477,
				-0.0035000001080334187
			],
			"min":[
				-0.4984000027179718,
				-0.811325192451477,
				-0.0035000001080334187
			],
			"type":"VEC3"
		},
		{
			"bufferView":1,
			"componentType":5126,
			"count":84,
			"type":"VEC3"
		},
		{
			"bufferView":2,
			"componentType":5126,
			"count":84,
			"type":"VEC2"
		},
		{
			"bufferView":3,
			"componentType":5123,
			"count":246,
			"type":"SCALAR"
		},
		{
			"bufferView":4,
			"componentType":5126,
			"count":84,
			"max":[
				0.4984000027179718,
				0.811325192451477,
				-0.010999999940395355
			],
			"min":[
				-0.4984000027179718,
				-0.811325192451477,
				-0.010999999940395355
			],
			"type":"VEC3"
		},
		{
			"bufferView":5,
			"componentType":5126,
			"count":84,
			"type":"VEC3"
		},
		{
			"bufferView":6,
			"componentType":5126,
			"count":84,
			"type":"VEC2"
		},
		{
			"bufferView":7,
			"componentType":5123,
			"count":246,
			"type":"SCALAR"
		},
		{
			"bufferView":8,
			"componentType":5126,
			"count":504,
			"max":[
				0.5,
				0.8129251599311829,
				-0.0035000001080334187
			],
			"min":[
				-0.5,
				-0.8129251599311829,
				-0.010999999940395355
			],
			"type":"VEC3"
		},
		{
			"bufferView":9,
			"componentType":5126,
			"count":504,
			"type":"VEC3"
		},
		{
			"bufferView":10,
			"componentType":5126,
			"count":504,
			"type":"VEC2"
		},
		{
			"bufferView":11,
			"componentType":5123,
			"count":2520,
			"type":"SCALAR"
		},
		{
			"bufferView":12,
			"componentType":5126,
			"count":84,
			"max":[
				0.4943999946117401,
				0.8073251843452454,
				0.0035000001080334187
			],
			"min":[
				-0.4943999946117401,
				-0.8073251843452454,
				0.0035000001080334187
			],
			"type":"VEC3"
		},
		{
			"bufferView":13,
			"componentType":5126,
			"count":84,
			"type":"VEC3"
		},
		{
			"bufferView":14,
			"componentType":5126,
			"count":84,
			"type":"VEC2"
		},
		{
			"bufferView":15,
			"componentType":5126,
			"count":84,
			"max":[
				0.4943999946117401,
				0.8073251843452454,
				-0.0035000001080334187
			],
			"min":[
				-0.4943999946117401,
				-0.8073251843452454,
				-0.0035000001080334187
			],
			"type":"VEC3"
		},
		{
			"bufferView":16,
			"componentType":5126,
			"count":84,
			"type":"VEC3"
		},
		{
			"bufferView":17,
			"componentType":5126,
			"count":84,
			"type":"VEC2"
		},
		{
			"bufferView":18,
			"componentType":5126,
			"count":504,
			"max":[
				0.4959999918937683,
				0.8089251518249512,
				0.0035000001080334187
			],
			"min":[
				-0.4959999918937683,
				-0.8089251518249512,
				-0.0035000001080334187
			],
			"type":"VEC3"
		},
		{
			"bufferView":19,
			"componentType":5126,
			"count":504,
			"type":"VEC3"
		},
		{
			"bufferView":20,
			"componentType":5126,
			"count":504,
			"type":"VEC2"
		},
		{
			"bufferView":21,
			"componentType":5126,
			"count":1848,
			"max":[
				0.4047619104385376,
				0.7131519317626953,
				0.011699999682605267
			],
			"min":[
				0.3095238208770752,
				-0.27551019191741943,
				0.010099999606609344
			],
			"type":"VEC3"
		},
		{
			"bufferView":22,
			"componentType":5126,
			"count":1848,
			"type":"VEC3"
		},
		{
			"bufferView":23,
			"componentType":5123,
			"count":3432,
			"type":"SCALAR"
		},
		{
			"bufferView":24,
			"componentType":5126,
			"count":1846,
			"max":[
				0.3095238208770752,
				0.6043083667755127,
				0.011699999682605267
			],
			"min":[
				0.2142857164144516,
				-0.47278910875320435,
				0.010099999606609344
			],
			"type":"VEC3"
		},
		{
			"bufferView":25,
			"componentType":5126,
			"count":1846,
			"type":"VEC3"
		},
		{
			"bufferView":26,
			"componentType":5123,
			"count":3444,
			"type":"SCALAR"
		},
		{
			"bufferView":27,
			"componentType":5126,
			"count":2424,
			"max":[
				0.2142857164144516,
				0.6133787035942078,
				0.011699999682605267
			],
			"min":[
				0.12358276546001434,
				-0.44784581661224365,
				0.010099999606609344
			],
			"type":"VEC3"
		},
		{
			"bufferView":28,
			"componentType":5126,
			"count":2424,
			"type":"VEC3"
		},
		{
			"bufferView":29,
			"componentType":5123,
			"count":4584,
			"type":"SCALAR"
		},
		{
			"bufferView":30,
			"componentType":5126,
			"count":1402,
			"max":[
				0.1190476194024086,
				0.7902494072914124,
				0.011699999682605267
			],
			"min":[
				0.02380952425301075,
				-0.4863945543766022,
				0.010099999606609344
			],
			"type":"VEC3"
		},
		{
			"bufferView":31,
			"componentType":5126,
			"count":1402,
			"type":"VEC3"
		},
		{
			"bufferView":32,
			"componentType":5123,
			"count":2640,
			"type":"SCALAR"
		},
		{
			"bufferView":33,
			"componentType":5126,
			"count":2502,
			"max":[
				0.017006803303956985,
				0.6904761791229248,
				0.011699999682605267
			],
			"min":[
				-0.0714285746216774,
				-0.4863945543766022,
				0.010099999606609344
			],
			"type":"VEC3"
		},
		{
			"bufferView":34,
			"componentType":5126,
			"count":2502,
			"type":"VEC3"
		},
		{
			"bufferView":35,
			"componentType":5123,
			"count":4704,
			"type":"SCALAR"
		},
		{
			"bufferView":36,
			"componentType":5126,
			"count":1892,
			"max":[
				-0.0714285746216774,
				0.4523809552192688,
				0.011699999682605267
			],
			"min":[
				-0.16439908742904663,
				-0.25736960768699646,
				0.010099999606609344
			],
			"type":"VEC3"
		},
		{
			"bufferView":37,
			"componentType":5126,
			"count":1892,
			"type":"VEC3"
		},
		{
			"bufferView":38,
			"componentType":5123,
			"count":3660,
			"type":"SCALAR"
		},
		{
			"bufferView":39,
			"componentType":5126,
			"count":84,
			"max":[
				0.4984000027179718,
				0.811325192451477,
				0.010999999940395355
			],
			"min":[
				-0.4984000027179718,
				-0.811325192451477,
				0.010999999940395355
			],
			"type":"VEC3"
		},
		{
			"bufferView":40,
			"componentType":5126,
			"count":84,
			"type":"VEC3"
		},
		{
			"bufferView":41,
			"componentType":5126,
			"count":84,
			"type":"VEC2"
		},
		{
			"bufferView":42,
			"componentType":5126,
			"count":84,
			"max":[
				0.4984000027179718,
				0.811325192451477,
				0.0035000001080334187
			],
			"min":[
				-0.4984000027179718,
				-0.811325192451477,
				0.0035000001080334187
			],
			"type":"VEC3"
		},
		{
			"bufferView":43,
			"componentType":5126,
			"count":84,
			"type":"VEC3"
		},
		{
			"bufferView":44,
			"componentType":5126,
			"count":84,
			"type":"VEC2"
		},
		{
			"bufferView":45,
			"componentType":5126,
			"count":504,
			"max":[
				0.5,
				0.8129251599311829,
				0.010999999940395355
			],
			"min":[
				-0.5,
				-0.8129251599311829,
				0.0035000001080334187
			],
			"type":"VEC3"
		},
		{
			"bufferView":46,
			"componentType":5126,
			"count":504,
			"type":"VEC3"
		},
		{
			"bufferView":47,
			"componentType":5126,
			"count":504,
			"type":"VEC2"
		},
		{
			"bufferView":48,
			"componentType":5126,
			"count":961,
			"max":[
				32
			],
			"min":[
				0
			],
			"type":"SCALAR"
		},
		{
			"bufferView":49,
			"componentType":5126,
			"count":961,
			"type":"VEC3"
		},
		{
			"bufferView":50,
			"componentType":5126,
			"count":961,
			"type":"VEC4"
		},
		{
			"bufferView":51,
			"componentType":5126,
			"count":2,
			"max":[
				32
			],
			"min":[
				0
			],
			"type":"SCALAR"
		},
		{
			"bufferView":52,
			"componentType":5126,
			"count":2,
			"type":"VEC3"
		},
		{
			"bufferView":53,
			"componentType":5126,
			"count":2,
			"type":"VEC3"
		},
		{
			"bufferView":54,
			"componentType":5126,
			"count":2,
			"type":"VEC4"
		},
		{
			"bufferView":55,
			"componentType":5126,
			"count":961,
			"type":"VEC3"
		},
		{
			"bufferView":56,
			"componentType":5126,
			"count":961,
			"type":"VEC3"
		},
		{
			"bufferView":57,
			"componentType":5126,
			"count":961,
			"type":"VEC4"
		},
		{
			"bufferView":58,
			"componentType":5126,
			"count":961,
			"type":"VEC3"
		},
		{
			"bufferView":59,
			"componentType":5126,
			"count":2,
			"type":"VEC3"
		},
		{
			"bufferView":60,
			"componentType":5126,
			"count":961,
			"type":"VEC3"
		},
		{
			"bufferView":61,
			"componentType":5126,
			"count":961,
			"type":"VEC3"
		},
		{
			"bufferView":62,
			"componentType":5126,
			"count":961,
			"type":"VEC3"
		},
		{
			"bufferView":63,
			"componentType":5126,
			"count":961,
			"type":"VEC3"
		},
		{
			"bufferView":64,
			"componentType":5126,
			"count":961,
			"type":"VEC3"
		}
	],
	"bufferViews":[
		{
			"buffer":0,
			"byteLength":1008,
			"byteOffset":0,
			"target":34962
		},
		{
			"buffer":0,
			"byteLength":1008,
			"byteOffset":1008,
			"target":34962
		},
		{
			"buffer":0,
			"byteLength":672,
			"byteOffset":2016,
			"target":34962
		},
		{
			"buffer":0,
			"byteLength":492,
			"byteOffset":2688,
			"target":34963
		},
		{
			"buffer":0,
			"byteLength":1008,
			"byteOffset":3180,
			"target":34962
		},
		{
			"buffer":0,
			"byteLength":1008,
			"byteOffset":4188,
			"target":34962
		},
		{
			"buffer":0,
			"byteLength":672,
			"byteOffset":5196,
			"target":34962
		},
		{
			"buffer":0,
			"byteLength":492,
			"byteOffset":5868,
			"target":34963
		},
		{
			"buffer":0,
			"byteLength":6048,
			"byteOffset":6360,
			"target":34962
		},
		{
			"buffer":0,
			"byteLength":6048,
			"byteOffset":12408,
			"target":34962
		},
		{
			"buffer":0,
			"byteLength":4032,
			"byteOffset":18456,
			"target":34962
		},
		{
			"buffer":0,
			"byteLength":5040,
			"byteOffset":22488,
			"target":34963
		},
		{
			"buffer":0,
			"byteLength":1008,
			"byteOffset":27528,
			"target":34962
		},
		{
			"buffer":0,
			"byteLength":1008,
			"byteOffset":28536,
			"target":34962
		},
		{
			"buffer":0,
			"byteLength":672,
			"byteOffset":29544,
			"target":34962
		},
		{
			"buffer":0,
			"byteLength":1008,
			"byteOffset":30216,
			"target":34962
		},
		{
			"buffer":0,
			"byteLength":1008,
			"byteOffset":31224,
			"target":34962
		},
		{
			"buffer":0,
			"byteLength":672,
			"byteOffset":32232,
			"target":34962
		},
		{
			"buffer":0,
			"byteLength":6048,
			"byteOffset":32904,
			"target":34962
		},
		{
			"buffer":0,
			"byteLength":6048,
			"byteOffset":38952,
			"target":34962
		},
		{
			"buffer":0,
			"byteLength":4032,
			"byteOffset":45000,
			"target":34962
		},
		{
			"buffer":0,
			"byteLength":22176,
			"byteOffset":49032,
			"target":34962
		},
		{
			"buffer":0,
			"byteLength":22176,
			"byteOffset":71208,
			"target":34962
		},
		{
			"buffer":0,
			"byteLength":6864,
			"byteOffset":93384,
			"target":34963
		},
		{
			"buffer":0,
			"byteLength":22152,
			"byteOffset":100248,
			"target":34962
		},
		{
			"buffer":0,
			"byteLength":22152,
			"byteOffset":122400,
			"target":34962
		},
		{
			"buffer":0,
			"byteLength":6888,
			"byteOffset":144552,
			"target":34963
		},
		{
			"buffer":0,
			"byteLength":29088,
			"byteOffset":151440,
			"target":34962
		},
		{
			"buffer":0,
			"byteLength":29088,
			"byteOffset":180528,
			"target":34962
		},
		{
			"buffer":0,
			"byteLength":9168,
			"byteOffset":209616,
			"target":34963
		},
		{
			"buffer":0,
			"byteLength":16824,
			"byteOffset":218784,
			"target":34962
		},
		{
			"buffer":0,
			"byteLength":16824,
			"byteOffset":235608,
			"target":34962
		},
		{
			"buffer":0,
			"byteLength":5280,
			"byteOffset":252432,
			"target":34963
		},
		{
			"buffer":0,
			"byteLength":30024,
			"byteOffset":257712,
			"target":34962
		},
		{
			"buffer":0,
			"byteLength":30024,
			"byteOffset":287736,
			"target":34962
		},
		{
			"buffer":0,
			"byteLength":9408,
			"byteOffset":317760,
			"target":34963
		},
		{
			"buffer":0,
			"byteLength":22704,
			"byteOffset":327168,
			"target":34962
		},
		{
			"buffer":0,
			"byteLength":22704,
			"byteOffset":349872,
			"target":34962
		},
		{
			"buffer":0,
			"byteLength":7320,
			"byteOffset":372576,
			"target":34963
		},
		{
			"buffer":0,
			"byteLength":1008,
			"byteOffset":379896,
			"target":34962
		},
		{
			"buffer":0,
			"byteLength":1008,
			"byteOffset":380904,
			"target":34962
		},
		{
			"buffer":0,
			"byteLength":672,
			"byteOffset":381912,
			"target":34962
		},
		{
			"buffer":0,
			"byteLength":1008,
			"byteOffset":382584,
			"target":34962
		},
		{
			"buffer":0,
			"byteLength":1008,
			"byteOffset":383592,
			"target":34962
		},
		{
			"buffer":0,
			"byteLength":672,
			"byteOffset":384600,
			"target":34962
		},
		{
			"buffer":0,
			"byteLength":6048,
			"byteOffset":385272,
			"target":34962
		},
		{
			"buffer":0,
			"byteLength":6048,
			"byteOffset":391320,
			"target":34962
		},
		{
			"buffer":0,
			"byteLength":4032,
			"byteOffset":397368,
			"target":34962
		},
		{
			"buffer":0,
			"byteLength":3844,
			"byteOffset":401400
		},
		{
			"buffer":0,
			"byteLength":11532,
			"byteOffset":405244
		},
		{
			"buffer":0,
			"byteLength":15376,
			"byteOffset":416776
		},
		{
			"buffer":0,
			"byteLength":8,
			"byteOffset":432152
		},
		{
			"buffer":0,
			"byteLength":24,
			"byteOffset":432160
		},
		{
			"buffer":0,
			"byteLength":24,
			"byteOffset":432184
		},
		{
			"buffer":0,
			"byteLength":32,
			"byteOffset":432208
		},
		{
			"buffer":0,
			"byteLength":11532,
			"byteOffset":432240
		},
		{
			"buffer":0,
			"byteLength":11532,
			"byteOffset":443772
		},
		{
			"buffer":0,
			"byteLength":15376,
			"byteOffset":455304
		},
		{
			"buffer":0,
			"byteLength":11532,
			"byteOffset":470680
		},
		{
			"buffer":0,
			"byteLength":24,
			"byteOffset":482212
		},
		{
			"buffer":0,
			"byteLength":11532,
			"byteOffset":482236
		},
		{
			"buffer":0,
			"byteLength":11532,
			"byteOffset":493768
		},
		{
			"buffer":0,
			"byteLength":11532,
			"byteOffset":505300
		},
		{
			"buffer":0,
			"byteLength":11532,
			"byteOffset":516832
		},
		{
			"buffer":0,
			"byteLength":11532,
			"byteOffset":528364
		}
	],
	"samplers":[
		{
			"magFilter":9729,
			"minFilter":9987
		}
	],
	"buffers":[
		{
			"byteLength":539896,
			"uri":"card_layers.bin"
		}
	]
}
